# xmcd CD database file
#
# Track frame offsets:
#	150
#	26057
#	50609
#	77532
#	117108
#	142665
#	178249
#	199390
#	263971
#
# Disc length: 3883 seconds
#
# Revision: 0
# Processed by: cddbd v1.5.2PL0 Copyright (c) Steve Scherf et al.
# Submitted via: CDex 1.51
#
DISCID=7a0f2909
DTITLE=Stepanka Balcarova - Life and Happiness of Julian Tuwim
DYEAR=1900
DGENRE=Jazz
TTITLE0=Czeresnie
TTITLE1=Zycie
TTITLE2=Trawa
TTITLE3=Zycie moje
TTITLE4=Moment
TTITLE5=Szczescie
TTITLE6=Ptak
TTITLE7=Wszystko
TTITLE8=Chrystusie...
EXTD=
EXTT0=
EXTT1=
EXTT2=
EXTT3=
EXTT4=
EXTT5=
EXTT6=
EXTT7=
EXTT8=
PLAYORDER=
